# xmcd
#
# Track frame offsets:
# 150
# 19595
# 45777
# 60777
# 76875
# 90338
# 111991
# 130306
# 150678
# 179476
# 198646
# 220558
# 233945
# 254150
# 269417
# 292366
#
# Disc length: 4442 seconds
#
#
# Revision: 0
# Processed by: cddbd v1.5.1PL0 Copyright (c) Steve Scherf et al.
# Submitted via: FreeRIP 2.60 
#
DISCID=df115810
DTITLE=Stevie Ray Vaughan - Rare Live, Studio and Non-Album Tracks
DYEAR=1900
DGENRE=Blues
TTITLE0=10,000 Men (with Bob Dylan)
TTITLE1=All Night Dance (with Bennie Wallace)
TTITLE2=Cat's In The Well (with Bob Dylan)
TTITLE3=Double Whammy (with Lonnie Mack)
TTITLE4=God Knows (with Bob Dylan)
TTITLE5=Heartache Away (with Don Johnson)
TTITLE6=Hound Dog Man (with Lonnie Mack)
TTITLE7=If You Have To Know (with Lonnie Mack)
TTITLE8=Living In America (12'' Mix) (with James Brown)
TTITLE9=Love Roulette (with Don Johnson)
TTITLE10=Oreo Cookie Blues (with Lonnie Mack)
TTITLE11=Pipeline (with Dick Dale)
TTITLE12=Satisfy Susie (with Lonnie Mack)
TTITLE13=Soulful Dress (with Marcia Ball)
TTITLE14=Trouble In Mind (with Bennie Wallace)
TTITLE15=Riviera Paradise (live at Alpine Valley, East Troy, WI, 8.26.90)
EXTD=
EXTT0=
EXTT1=
EXTT2=
EXTT3=
EXTT4=
EXTT5=
EXTT6=
EXTT7=
EXTT8=
EXTT9=
EXTT10=
EXTT11=
EXTT12=
EXTT13=
EXTT14=
EXTT15=
PLAYORDER=
